<mxfile host="app.diagrams.net" modified="2024-01-07T21:17:56.962Z" agent="Mozilla/5.0 (Windows NT 10.0; Win64; x64) AppleWebKit/537.36 (KHTML, like Gecko) Chrome/120.0.0.0 Safari/537.36 Edg/120.0.0.0" etag="Q8fL-Ba92Zj71QJRXEYt" version="22.1.17" type="device">
  <diagram id="C5RBs43oDa-KdzZeNtuy" name="Page-1">
    <mxGraphModel dx="835" dy="474" grid="1" gridSize="10" guides="1" tooltips="1" connect="1" arrows="1" fold="1" page="1" pageScale="1" pageWidth="827" pageHeight="1169" math="0" shadow="0">
      <root>
        <mxCell id="WIyWlLk6GJQsqaUBKTNV-0" />
        <mxCell id="WIyWlLk6GJQsqaUBKTNV-1" parent="WIyWlLk6GJQsqaUBKTNV-0" />
        <mxCell id="JiRuqwOizWQbmNrBFK9y-2" value="" style="edgeStyle=orthogonalEdgeStyle;rounded=0;orthogonalLoop=1;jettySize=auto;html=1;" edge="1" parent="WIyWlLk6GJQsqaUBKTNV-1" source="JiRuqwOizWQbmNrBFK9y-0" target="JiRuqwOizWQbmNrBFK9y-1">
          <mxGeometry relative="1" as="geometry" />
        </mxCell>
        <mxCell id="JiRuqwOizWQbmNrBFK9y-0" value="Camp selectat" style="rounded=1;whiteSpace=wrap;html=1;" vertex="1" parent="WIyWlLk6GJQsqaUBKTNV-1">
          <mxGeometry x="230" y="120" width="120" height="60" as="geometry" />
        </mxCell>
        <mxCell id="JiRuqwOizWQbmNrBFK9y-4" value="" style="edgeStyle=orthogonalEdgeStyle;rounded=0;orthogonalLoop=1;jettySize=auto;html=1;fontStyle=0" edge="1" parent="WIyWlLk6GJQsqaUBKTNV-1" source="JiRuqwOizWQbmNrBFK9y-1" target="JiRuqwOizWQbmNrBFK9y-3">
          <mxGeometry relative="1" as="geometry" />
        </mxCell>
        <mxCell id="JiRuqwOizWQbmNrBFK9y-7" value="" style="edgeStyle=orthogonalEdgeStyle;rounded=0;orthogonalLoop=1;jettySize=auto;html=1;" edge="1" parent="WIyWlLk6GJQsqaUBKTNV-1" source="JiRuqwOizWQbmNrBFK9y-1" target="JiRuqwOizWQbmNrBFK9y-6">
          <mxGeometry relative="1" as="geometry" />
        </mxCell>
        <mxCell id="JiRuqwOizWQbmNrBFK9y-1" value="Este Bomba?" style="rhombus;whiteSpace=wrap;html=1;rounded=1;" vertex="1" parent="WIyWlLk6GJQsqaUBKTNV-1">
          <mxGeometry x="250" y="210" width="80" height="80" as="geometry" />
        </mxCell>
        <mxCell id="JiRuqwOizWQbmNrBFK9y-3" value="GAME OVER" style="shape=step;perimeter=stepPerimeter;whiteSpace=wrap;html=1;fixedSize=1;rounded=1;" vertex="1" parent="WIyWlLk6GJQsqaUBKTNV-1">
          <mxGeometry x="390" y="210" width="120" height="80" as="geometry" />
        </mxCell>
        <mxCell id="JiRuqwOizWQbmNrBFK9y-5" value="Da" style="text;html=1;align=center;verticalAlign=middle;resizable=0;points=[];autosize=1;strokeColor=none;fillColor=none;" vertex="1" parent="WIyWlLk6GJQsqaUBKTNV-1">
          <mxGeometry x="340" y="230" width="40" height="30" as="geometry" />
        </mxCell>
        <mxCell id="JiRuqwOizWQbmNrBFK9y-9" value="" style="edgeStyle=orthogonalEdgeStyle;rounded=0;orthogonalLoop=1;jettySize=auto;html=1;exitX=0;exitY=0.5;exitDx=0;exitDy=0;entryX=1;entryY=0.5;entryDx=0;entryDy=0;" edge="1" parent="WIyWlLk6GJQsqaUBKTNV-1" source="JiRuqwOizWQbmNrBFK9y-6" target="JiRuqwOizWQbmNrBFK9y-21">
          <mxGeometry relative="1" as="geometry">
            <mxPoint x="330.0000000000002" y="369.66000000000014" as="sourcePoint" />
            <mxPoint x="200" y="370" as="targetPoint" />
            <Array as="points" />
          </mxGeometry>
        </mxCell>
        <mxCell id="JiRuqwOizWQbmNrBFK9y-15" value="" style="edgeStyle=orthogonalEdgeStyle;rounded=0;orthogonalLoop=1;jettySize=auto;html=1;" edge="1" parent="WIyWlLk6GJQsqaUBKTNV-1" source="JiRuqwOizWQbmNrBFK9y-6" target="JiRuqwOizWQbmNrBFK9y-14">
          <mxGeometry relative="1" as="geometry" />
        </mxCell>
        <mxCell id="JiRuqwOizWQbmNrBFK9y-6" value="Este 0?" style="rhombus;whiteSpace=wrap;html=1;rounded=1;" vertex="1" parent="WIyWlLk6GJQsqaUBKTNV-1">
          <mxGeometry x="250" y="330" width="80" height="80" as="geometry" />
        </mxCell>
        <mxCell id="JiRuqwOizWQbmNrBFK9y-11" style="edgeStyle=orthogonalEdgeStyle;rounded=0;orthogonalLoop=1;jettySize=auto;html=1;entryX=0;entryY=0.5;entryDx=0;entryDy=0;" edge="1" parent="WIyWlLk6GJQsqaUBKTNV-1" source="JiRuqwOizWQbmNrBFK9y-8" target="JiRuqwOizWQbmNrBFK9y-0">
          <mxGeometry relative="1" as="geometry">
            <mxPoint x="90.00000000000011" y="390.0000000000001" as="sourcePoint" />
            <mxPoint x="130" y="120" as="targetPoint" />
            <Array as="points">
              <mxPoint x="131" y="150" />
            </Array>
          </mxGeometry>
        </mxCell>
        <mxCell id="JiRuqwOizWQbmNrBFK9y-10" value="Da" style="text;html=1;align=center;verticalAlign=middle;resizable=0;points=[];autosize=1;strokeColor=none;fillColor=none;" vertex="1" parent="WIyWlLk6GJQsqaUBKTNV-1">
          <mxGeometry x="210" y="350" width="40" height="30" as="geometry" />
        </mxCell>
        <mxCell id="JiRuqwOizWQbmNrBFK9y-13" value="Nu" style="text;html=1;align=center;verticalAlign=middle;resizable=0;points=[];autosize=1;strokeColor=none;fillColor=none;" vertex="1" parent="WIyWlLk6GJQsqaUBKTNV-1">
          <mxGeometry x="280" y="290" width="40" height="30" as="geometry" />
        </mxCell>
        <mxCell id="JiRuqwOizWQbmNrBFK9y-27" style="edgeStyle=orthogonalEdgeStyle;rounded=0;orthogonalLoop=1;jettySize=auto;html=1;exitX=0;exitY=0.5;exitDx=0;exitDy=0;entryX=0.5;entryY=1;entryDx=0;entryDy=0;" edge="1" parent="WIyWlLk6GJQsqaUBKTNV-1" source="JiRuqwOizWQbmNrBFK9y-14" target="JiRuqwOizWQbmNrBFK9y-21">
          <mxGeometry relative="1" as="geometry" />
        </mxCell>
        <mxCell id="JiRuqwOizWQbmNrBFK9y-30" style="edgeStyle=orthogonalEdgeStyle;rounded=0;orthogonalLoop=1;jettySize=auto;html=1;exitX=1;exitY=0.5;exitDx=0;exitDy=0;entryX=0;entryY=0.5;entryDx=0;entryDy=0;" edge="1" parent="WIyWlLk6GJQsqaUBKTNV-1" source="JiRuqwOizWQbmNrBFK9y-14" target="JiRuqwOizWQbmNrBFK9y-29">
          <mxGeometry relative="1" as="geometry" />
        </mxCell>
        <mxCell id="JiRuqwOizWQbmNrBFK9y-14" value="Sterge butonul" style="shape=process;whiteSpace=wrap;html=1;backgroundOutline=1;rounded=1;" vertex="1" parent="WIyWlLk6GJQsqaUBKTNV-1">
          <mxGeometry x="230" y="460" width="120" height="60" as="geometry" />
        </mxCell>
        <mxCell id="JiRuqwOizWQbmNrBFK9y-16" value="Nu" style="text;html=1;align=center;verticalAlign=middle;resizable=0;points=[];autosize=1;strokeColor=none;fillColor=none;" vertex="1" parent="WIyWlLk6GJQsqaUBKTNV-1">
          <mxGeometry x="280" y="410" width="40" height="30" as="geometry" />
        </mxCell>
        <mxCell id="JiRuqwOizWQbmNrBFK9y-8" value="Cascade algorithm" style="shape=process;whiteSpace=wrap;html=1;backgroundOutline=1;rounded=1;" vertex="1" parent="WIyWlLk6GJQsqaUBKTNV-1">
          <mxGeometry x="70" y="215" width="120" height="60" as="geometry" />
        </mxCell>
        <mxCell id="JiRuqwOizWQbmNrBFK9y-19" value="Vecinii&amp;nbsp;garantat&lt;br style=&quot;border-color: var(--border-color); font-size: 11px;&quot;&gt;&lt;span style=&quot;font-size: 11px; background-color: rgb(255, 255, 255);&quot;&gt;nu sunt&lt;/span&gt;&lt;br style=&quot;border-color: var(--border-color); font-size: 11px;&quot;&gt;&lt;span style=&quot;font-size: 11px; background-color: rgb(255, 255, 255);&quot;&gt;bombe&lt;/span&gt;" style="text;html=1;align=center;verticalAlign=middle;resizable=0;points=[];autosize=1;strokeColor=none;fillColor=none;" vertex="1" parent="WIyWlLk6GJQsqaUBKTNV-1">
          <mxGeometry x="50" y="120" width="110" height="60" as="geometry" />
        </mxCell>
        <mxCell id="JiRuqwOizWQbmNrBFK9y-21" value="Dezvaluie campul" style="shape=process;whiteSpace=wrap;html=1;backgroundOutline=1;rounded=1;" vertex="1" parent="WIyWlLk6GJQsqaUBKTNV-1">
          <mxGeometry x="70" y="340" width="120" height="60" as="geometry" />
        </mxCell>
        <mxCell id="JiRuqwOizWQbmNrBFK9y-25" value="" style="edgeStyle=none;orthogonalLoop=1;jettySize=auto;html=1;rounded=0;entryX=0.5;entryY=1;entryDx=0;entryDy=0;" edge="1" parent="WIyWlLk6GJQsqaUBKTNV-1" target="JiRuqwOizWQbmNrBFK9y-8">
          <mxGeometry width="100" relative="1" as="geometry">
            <mxPoint x="220" y="370" as="sourcePoint" />
            <mxPoint x="260" y="340" as="targetPoint" />
            <Array as="points">
              <mxPoint x="220" y="310" />
              <mxPoint x="130" y="310" />
            </Array>
          </mxGeometry>
        </mxCell>
        <mxCell id="JiRuqwOizWQbmNrBFK9y-32" style="edgeStyle=orthogonalEdgeStyle;rounded=0;orthogonalLoop=1;jettySize=auto;html=1;exitX=0.5;exitY=0;exitDx=0;exitDy=0;entryX=0.5;entryY=1;entryDx=0;entryDy=0;" edge="1" parent="WIyWlLk6GJQsqaUBKTNV-1" source="JiRuqwOizWQbmNrBFK9y-29" target="JiRuqwOizWQbmNrBFK9y-31">
          <mxGeometry relative="1" as="geometry" />
        </mxCell>
        <mxCell id="JiRuqwOizWQbmNrBFK9y-29" value="Au fost distruse toate&lt;br&gt;campurile safe?" style="rhombus;whiteSpace=wrap;html=1;rounded=1;" vertex="1" parent="WIyWlLk6GJQsqaUBKTNV-1">
          <mxGeometry x="385" y="425" width="130" height="130" as="geometry" />
        </mxCell>
        <mxCell id="JiRuqwOizWQbmNrBFK9y-31" value="YOU WIN" style="shape=step;perimeter=stepPerimeter;whiteSpace=wrap;html=1;fixedSize=1;rounded=1;" vertex="1" parent="WIyWlLk6GJQsqaUBKTNV-1">
          <mxGeometry x="390" y="300" width="120" height="80" as="geometry" />
        </mxCell>
        <mxCell id="JiRuqwOizWQbmNrBFK9y-33" value="Da" style="text;html=1;align=center;verticalAlign=middle;resizable=0;points=[];autosize=1;strokeColor=none;fillColor=none;" vertex="1" parent="WIyWlLk6GJQsqaUBKTNV-1">
          <mxGeometry x="440" y="398" width="40" height="30" as="geometry" />
        </mxCell>
      </root>
    </mxGraphModel>
  </diagram>
</mxfile>
